<svg width="197" height="45" viewBox="0 0 197 45" fill="none" xmlns="http://www.w3.org/2000/svg">
<g clip-path="url(#clip0_3_1006)">
<path d="M7.16866 44.8211V32.2401L29.1651 16.143L35.2303 20.5825L41.307 16.1353L29.1651 7.25037L0 28.5918V44.8211H7.16866Z" fill="#005B99"/>
<path d="M30.9236 44.8211V32.2401L52.9211 16.143L65.0629 16.1353L52.9211 7.25037L23.7559 28.5918V44.8211H30.9236Z" fill="#005B99"/>
<path d="M41.2989 44.6628C40.5396 44.4575 39.8185 44.1301 39.1639 43.6933C38.519 43.2645 37.9458 42.7364 37.4652 42.1285C36.9618 41.4766 36.5789 40.7396 36.3346 39.9525C36.0542 39.0631 35.9157 38.1349 35.9245 37.2022C35.9201 36.357 36.0298 35.5152 36.2506 34.6995C36.6645 33.1669 37.5631 31.81 38.8115 30.8321C39.4643 30.3304 40.2017 29.9503 40.9886 29.7099C41.8723 29.4361 42.7929 29.301 43.7179 29.3094C44.4397 29.3093 45.1581 29.4086 45.8529 29.6044C46.5967 29.8207 47.304 30.1475 47.9511 30.5739C48.6553 31.0294 49.2821 31.5951 49.8075 32.2494L47.5883 34.1462C47.1103 33.5692 46.5244 33.0913 45.8635 32.7394C45.2049 32.3813 44.4671 32.1947 43.7179 32.1967C43.3502 32.1956 42.9834 32.2345 42.6241 32.3127C42.2821 32.387 41.9502 32.5019 41.6355 32.6551C41.3298 32.8043 41.0421 32.9882 40.7783 33.2031C40.513 33.4199 40.2762 33.6695 40.0736 33.9459C39.8634 34.2329 39.6853 34.5421 39.5425 34.8681C39.3903 35.218 39.2774 35.5838 39.206 35.9587C39.1273 36.3685 39.0885 36.7849 39.0902 37.2022C39.0755 38.0803 39.2759 38.9487 39.6739 39.7312C40.0449 40.4565 40.6139 41.0613 41.3146 41.4752C42.007 41.8686 42.786 42.0836 43.5817 42.1011C44.3774 42.1186 45.1651 41.9379 45.874 41.5753C46.5385 41.2311 47.1227 40.7499 47.5883 40.1633L49.8075 42.0706C49.0995 42.9543 48.2099 43.6749 47.1992 44.1834C46.1189 44.7237 44.9251 44.9965 43.7179 44.979C42.9011 44.9822 42.0875 44.8759 41.2989 44.6628Z" fill="#000012"/>
<path d="M56.1244 44.4099C55.1976 44.0457 54.3561 43.4932 53.6529 42.7872C52.9599 42.0732 52.4196 41.2252 52.0648 40.2949C51.3005 38.2697 51.3005 36.0345 52.0648 34.0092C52.4204 33.081 52.9608 32.2349 53.6529 31.5223C54.3575 30.8154 55.2009 30.2628 56.1297 29.8994C57.1371 29.4999 58.2121 29.2996 59.2954 29.3094C60.3585 29.2997 61.4136 29.4947 62.4034 29.8837C63.3238 30.2428 64.1625 30.784 64.8697 31.4749C65.5753 32.1808 66.1268 33.0259 66.4894 33.9565C67.2746 36.0143 67.2746 38.2899 66.4894 40.3476C66.1278 41.2803 65.5761 42.1273 64.8697 42.8346C64.1625 43.5255 63.3237 44.0666 62.4034 44.4258C60.3801 45.1968 58.1438 45.1912 56.1244 44.4099ZM61.1412 41.7965C61.6984 41.5539 62.1996 41.1987 62.6137 40.7533C63.0377 40.288 63.3664 39.7438 63.5814 39.1517C63.8189 38.5112 63.9383 37.8328 63.9336 37.1495C63.9466 36.2556 63.7389 35.3723 63.3289 34.5783C62.9421 33.8345 62.3582 33.212 61.6413 32.7792C60.9244 32.3463 60.1022 32.1199 59.2652 32.1248C58.4282 32.1297 57.6087 32.3657 56.8969 32.8069C56.1851 33.2481 55.6085 33.8775 55.2304 34.6257C54.8464 35.4133 54.6468 36.2782 54.6468 37.1548C54.6468 38.0313 54.8464 38.8963 55.2304 39.6838C55.6055 40.4306 56.1787 41.0595 56.8869 41.5015C57.5216 41.8861 58.2386 42.1135 58.9785 42.1648C59.7184 42.2161 60.4598 42.0898 61.1412 41.7965Z" fill="#000012"/>
<path d="M82.7086 29.4885V44.8209H79.6059L72.8748 34.6625H72.8328V44.8209H69.8142V29.4885H72.8328L79.6376 39.8472H79.6796V29.4885H82.7086Z" fill="#000012"/>
<path d="M89.2412 32.2072H85.0236V29.4885H96.4982V32.2072H92.2596V44.8209H89.2412V32.2072Z" fill="#000012"/>
<path d="M106.975 44.8209L103.546 39.5731H101.789V44.8209H98.8025V29.4885H104.587C105.397 29.4742 106.204 29.6027 106.969 29.8679C107.605 30.0854 108.179 30.4542 108.642 30.9428C109.067 31.4089 109.393 31.9577 109.599 32.555C109.82 33.2134 109.929 33.9047 109.919 34.5994C109.932 35.329 109.802 36.0541 109.535 36.7332C109.301 37.3237 108.934 37.852 108.463 38.277C107.974 38.7014 107.403 39.0206 106.785 39.2148V39.257L110.561 44.8209H106.975ZM101.789 36.8966H103.914C104.832 36.8966 105.541 36.6841 106.038 36.2591C106.536 35.834 106.785 35.2597 106.785 34.5361C106.785 33.8126 106.545 33.24 106.065 32.8185C105.585 32.3969 104.91 32.1861 104.04 32.1861H101.789L101.789 36.8966Z" fill="#000012"/>
<path d="M121.753 41.7545H115.884L114.843 44.8209H111.677L117.346 29.4885H120.27L125.96 44.8209H122.794L121.753 41.7545ZM120.869 39.1622L118.818 33.1451H118.797L116.757 39.1622H120.869Z" fill="#000012"/>
<path d="M131.935 44.6628C131.175 44.4575 130.454 44.1301 129.8 43.6933C129.155 43.2645 128.581 42.7364 128.101 42.1285C127.597 41.4766 127.215 40.7396 126.97 39.9525C126.69 39.0631 126.551 38.1349 126.56 37.2022C126.556 36.357 126.665 35.5152 126.886 34.6995C127.3 33.1669 128.199 31.81 129.447 30.8321C130.1 30.3304 130.837 29.9503 131.624 29.7099C132.508 29.4361 133.429 29.301 134.354 29.3094C135.075 29.3093 135.794 29.4086 136.489 29.6044C137.232 29.8207 137.94 30.1475 138.587 30.5739C139.291 31.0294 139.918 31.5951 140.443 32.2494L138.224 34.1462C137.746 33.5692 137.16 33.0913 136.499 32.7394C135.841 32.3813 135.103 32.1947 134.354 32.1967C133.986 32.1956 133.619 32.2345 133.26 32.3127C132.918 32.387 132.586 32.5019 132.271 32.6551C131.965 32.8043 131.678 32.9882 131.414 33.2031C131.149 33.4199 130.912 33.6695 130.709 33.9459C130.499 34.2329 130.321 34.5421 130.178 34.8681C130.026 35.218 129.913 35.5838 129.842 35.9587C129.763 36.3685 129.724 36.7849 129.726 37.2022C129.711 38.0803 129.912 38.9487 130.31 39.7312C130.681 40.4565 131.25 41.0613 131.95 41.4752C132.643 41.8686 133.422 42.0836 134.217 42.1011C135.013 42.1186 135.801 41.9379 136.51 41.5753C137.174 41.2311 137.758 40.7499 138.224 40.1633L140.443 42.0706C139.735 42.9543 138.846 43.6749 137.835 44.1834C136.755 44.7237 135.561 44.9965 134.354 44.979C133.537 44.9822 132.723 44.8759 131.935 44.6628Z" fill="#000012"/>
<path d="M145.977 32.2072H141.759V29.4885H153.234V32.2072H148.995V44.8209H145.977V32.2072Z" fill="#000012"/>
<path d="M158.561 44.4099C157.635 44.0457 156.793 43.4932 156.09 42.7872C155.397 42.0732 154.857 41.2252 154.502 40.2949C153.738 38.2697 153.738 36.0345 154.502 34.0092C154.858 33.081 155.398 32.2349 156.09 31.5223C156.795 30.8154 157.638 30.2628 158.567 29.8994C159.574 29.4999 160.649 29.2996 161.733 29.3094C162.796 29.2997 163.851 29.4947 164.84 29.8837C165.761 30.2428 166.6 30.784 167.307 31.4749C168.012 32.1809 168.564 33.0259 168.927 33.9565C169.712 36.0143 169.712 38.2899 168.927 40.3476C168.565 41.2803 168.013 42.1273 167.307 42.8346C166.6 43.5255 165.761 44.0666 164.84 44.4258C162.817 45.1968 160.581 45.1912 158.561 44.4099ZM163.578 41.7965C164.135 41.5539 164.637 41.1987 165.051 40.7533C165.475 40.288 165.804 39.7438 166.018 39.1517C166.256 38.5112 166.375 37.8328 166.371 37.1495C166.384 36.2556 166.176 35.3723 165.766 34.5783C165.379 33.8345 164.795 33.212 164.078 32.7792C163.361 32.3463 162.539 32.1199 161.702 32.1248C160.865 32.1297 160.046 32.3657 159.334 32.8069C158.622 33.2481 158.046 33.8775 157.668 34.6257C157.283 35.4133 157.084 36.2782 157.084 37.1548C157.084 38.0313 157.283 38.8963 157.668 39.6838C158.043 40.4306 158.616 41.0595 159.324 41.5015C159.959 41.8861 160.676 42.1135 161.416 42.1648C162.155 42.2161 162.897 42.0898 163.578 41.7965Z" fill="#000012"/>
<path d="M180.423 44.8209L176.995 39.5731H175.238V44.8209H172.251V29.4885H178.036C178.846 29.4742 179.652 29.6027 180.418 29.8679C181.054 30.0854 181.628 30.4542 182.09 30.9428C182.516 31.4089 182.842 31.9577 183.047 32.555C183.269 33.2134 183.377 33.9047 183.368 34.5994C183.381 35.329 183.251 36.0541 182.984 36.7332C182.75 37.3237 182.383 37.852 181.912 38.277C181.422 38.7014 180.851 39.0206 180.234 39.2148V39.257L184.01 44.8209H180.423ZM175.238 36.8966H177.363C178.281 36.8966 178.99 36.6841 179.487 36.2591C179.985 35.834 180.234 35.2597 180.234 34.5361C180.234 33.8126 179.994 33.24 179.514 32.8185C179.033 32.3969 178.359 32.1861 177.489 32.1861H175.238V36.8966Z" fill="#000012"/>
<path d="M197 42.1128V44.8209H185.83V42.45L192.961 32.281V32.2072H186.125V29.4885H196.979V31.8069L189.701 42.0389V42.1128H197Z" fill="#000012"/>
<path d="M33.7261 9.52346C33.6755 9.13623 33.6452 8.74663 33.6352 8.35623C33.6371 8.22556 33.7844 8.05596 33.9107 7.97648C34.1992 7.79479 34.2775 7.558 34.287 7.22801C34.3527 4.94108 35.6639 2.734 37.585 1.7056L39.3279 4.67789L39.4178 4.64302C39.0592 3.31124 38.7007 1.97946 38.3356 0.623586L42.2802 0C42.3505 1.37863 42.4192 2.72742 42.4879 4.07622L42.5854 4.08817C42.8264 3.00284 43.0673 1.91751 43.3182 0.78755C43.4592 0.817223 43.5849 0.832432 43.7034 0.870258C45.8916 1.56894 47.3896 3.00226 48.1997 5.15004C48.2947 5.40202 48.4174 5.56581 48.6778 5.62191C48.8037 5.63638 48.9196 5.69793 49.0022 5.79426C49.0848 5.8906 49.1281 6.01462 49.1234 6.14154C49.1403 6.58866 49.3295 6.88823 49.7858 7.04201C50.0289 7.14003 50.2411 7.30203 50.3999 7.5109C50.4853 7.61657 50.4731 7.8578 50.4147 8.00099C50.3833 8.07805 50.1536 8.1256 50.027 8.10444C47.7175 7.71859 45.3989 7.45874 43.052 7.52747C39.8584 7.62099 36.7547 8.12807 33.8401 9.51727C33.8025 9.52422 33.7642 9.5263 33.7261 9.52346Z" fill="#FF6A00"/>
</g>
<defs>
<clipPath id="clip0_3_1006">
<rect width="197" height="45" fill="white"/>
</clipPath>
</defs>
</svg>
