<svg width="240" height="180" viewBox="0 0 240 180" fill="none" xmlns="http://www.w3.org/2000/svg">
<path d="M120 170C164.183 170 200 134.183 200 90C200 45.8172 164.183 10 120 10C75.8172 10 40 45.8172 40 90C40 134.183 75.8172 170 120 170Z" fill="#F1F5F9"/>
<path d="M122 70H68C63.5817 70 60 73.5817 60 78V147C60 151.418 63.5817 155 68 155H122C126.418 155 130 151.418 130 147V78C130 73.5817 126.418 70 122 70Z" fill="white" stroke="#E2E8F0" stroke-width="2"/>
<path d="M95 110C103.284 110 110 103.284 110 95C110 86.7157 103.284 80 95 80C86.7157 80 80 86.7157 80 95C80 103.284 86.7157 110 95 110Z" fill="#FED7AA"/>
<path d="M117 115H73C71.3431 115 70 116.343 70 118C70 119.657 71.3431 121 73 121H117C118.657 121 120 119.657 120 118C120 116.343 118.657 115 117 115Z" fill="#E2E8F0"/>
<path d="M102 127H73C71.3431 127 70 128.343 70 130C70 131.657 71.3431 133 73 133H102C103.657 133 105 131.657 105 130C105 128.343 103.657 127 102 127Z" fill="#F1F5F9"/>
<path d="M107 139H73C71.3431 139 70 140.343 70 142C70 143.657 71.3431 145 73 145H107C108.657 145 110 143.657 110 142C110 140.343 108.657 139 107 139Z" fill="#F1F5F9"/>
<path d="M147 55H93C88.5817 55 85 58.5817 85 63V132C85 136.418 88.5817 140 93 140H147C151.418 140 155 136.418 155 132V63C155 58.5817 151.418 55 147 55Z" fill="white" stroke="#E2E8F0" stroke-width="2"/>
<path d="M120 95C128.284 95 135 88.2843 135 80C135 71.7157 128.284 65 120 65C111.716 65 105 71.7157 105 80C105 88.2843 111.716 95 120 95Z" fill="#DBEAFE"/>
<path d="M142 100H98C96.3431 100 95 101.343 95 103C95 104.657 96.3431 106 98 106H142C143.657 106 145 104.657 145 103C145 101.343 143.657 100 142 100Z" fill="#E2E8F0"/>
<path d="M127 112H98C96.3431 112 95 113.343 95 115C95 116.657 96.3431 118 98 118H127C128.657 118 130 116.657 130 115C130 113.343 128.657 112 127 112Z" fill="#F1F5F9"/>
<path d="M132 124H98C96.3431 124 95 125.343 95 127C95 128.657 96.3431 130 98 130H132C133.657 130 135 128.657 135 127C135 125.343 133.657 124 132 124Z" fill="#F1F5F9"/>
<path d="M172 40H118C113.582 40 110 43.5817 110 48V117C110 121.418 113.582 125 118 125H172C176.418 125 180 121.418 180 117V48C180 43.5817 176.418 40 172 40Z" fill="white" stroke="#EA580C" stroke-width="2.5"/>
<path d="M145 80C153.284 80 160 73.2843 160 65C160 56.7157 153.284 50 145 50C136.716 50 130 56.7157 130 65C130 73.2843 136.716 80 145 80Z" fill="#FED7AA"/>
<path d="M167 85H123C121.343 85 120 86.3431 120 88C120 89.6569 121.343 91 123 91H167C168.657 91 170 89.6569 170 88C170 86.3431 168.657 85 167 85Z" fill="#E2E8F0"/>
<path d="M152 97H123C121.343 97 120 98.3431 120 100C120 101.657 121.343 103 123 103H152C153.657 103 155 101.657 155 100C155 98.3431 153.657 97 152 97Z" fill="#F1F5F9"/>
<path d="M157 109H123C121.343 109 120 110.343 120 112C120 113.657 121.343 115 123 115H157C158.657 115 160 113.657 160 112C160 110.343 158.657 109 157 109Z" fill="#F1F5F9"/>
<path d="M170 68C179.941 68 188 59.9411 188 50C188 40.0589 179.941 32 170 32C160.059 32 152 40.0589 152 50C152 59.9411 160.059 68 170 68Z" fill="#EA580C"/>
<path d="M170 42V58M162 50H178" stroke="white" stroke-width="2.5" stroke-linecap="round"/>
<path opacity="0.6" d="M50 64C52.2091 64 54 62.2091 54 60C54 57.7909 52.2091 56 50 56C47.7909 56 46 57.7909 46 60C46 62.2091 47.7909 64 50 64Z" fill="#FED7AA"/>
<path opacity="0.6" d="M190 134C192.209 134 194 132.209 194 130C194 127.791 192.209 126 190 126C187.791 126 186 127.791 186 130C186 132.209 187.791 134 190 134Z" fill="#DBEAFE"/>
<path opacity="0.4" d="M70 143C71.6569 143 73 141.657 73 140C73 138.343 71.6569 137 70 137C68.3431 137 67 138.343 67 140C67 141.657 68.3431 143 70 143Z" fill="#FED7AA"/>
<path opacity="0.6" d="M180 73C181.657 73 183 71.6569 183 70C183 68.3431 181.657 67 180 67C178.343 67 177 68.3431 177 70C177 71.6569 178.343 73 180 73Z" fill="#E2E8F0"/>
</svg>
