<svg width="1500" height="927" viewBox="0 0 1500 927" fill="none" xmlns="http://www.w3.org/2000/svg">
<g style="mix-blend-mode:overlay">
<circle cx="40.0726" cy="149.96" r="6.55421" transform="rotate(-76.2652 40.0726 149.96)" fill="#FF541F"/>
</g>
<g style="mix-blend-mode:overlay">
<circle cx="315.683" cy="112.731" r="3.2788" transform="rotate(-76.2652 315.683 112.731)" fill="#FF541F"/>
</g>
<g style="mix-blend-mode:overlay">
<circle cx="440.596" cy="118.693" r="6.6449" transform="rotate(-9.69464 440.596 118.693)" fill="#FF541F"/>
</g>
<g style="mix-blend-mode:overlay">
<circle cx="559.501" cy="202.89" r="3.32417" transform="rotate(-9.69464 559.501 202.89)" fill="#FF541F"/>
</g>
<g style="mix-blend-mode:overlay">
<circle cx="917.326" cy="87.8145" r="3.32417" transform="rotate(-9.69464 917.326 87.8145)" fill="#FF541F"/>
</g>
<circle cx="795.947" cy="324.269" r="3.32417" transform="rotate(-9.69464 795.947 324.269)" fill="#FF541F"/>
<g style="mix-blend-mode:overlay">
<circle cx="720.506" cy="178.743" r="6.6449" transform="rotate(-9.69464 720.506 178.743)" fill="#FF541F"/>
</g>
<circle cx="957.924" cy="266.255" r="6.6449" transform="rotate(-9.69464 957.924 266.255)" fill="#FF541F"/>
<circle cx="586.337" cy="360.069" r="3.32417" transform="rotate(-9.69464 586.337 360.069)" fill="#FF541F"/>
<circle cx="739.06" cy="307.022" r="3.32417" transform="rotate(-9.69464 739.06 307.022)" fill="#FF541F"/>
<g style="mix-blend-mode:overlay">
<circle cx="641.904" cy="53.9713" r="3.32417" transform="rotate(-9.69464 641.904 53.9713)" fill="#FF541F"/>
</g>
<g style="mix-blend-mode:overlay">
<circle cx="1347.37" cy="605.24" r="3.62754" transform="rotate(-71.272 1347.37 605.24)" fill="#FF541F"/>
</g>
<circle cx="1109.94" cy="402.234" r="3.62754" transform="rotate(-71.272 1109.94 402.234)" fill="#FF541F"/>
<g style="mix-blend-mode:overlay">
<circle cx="1422.83" cy="202.052" r="3.62754" transform="rotate(-71.272 1422.83 202.052)" fill="#FF541F"/>
</g>
<g style="mix-blend-mode:overlay">
<circle cx="1407.84" cy="438.16" r="7.25133" transform="rotate(-71.272 1407.84 438.16)" fill="#FF541F"/>
</g>
<circle cx="1220.75" cy="256.05" r="3.62754" transform="rotate(-71.272 1220.75 256.05)" fill="#FF541F"/>
<circle cx="1247.28" cy="448.798" r="3.62754" transform="rotate(-71.272 1247.28 448.798)" fill="#FF541F"/>
<g style="mix-blend-mode:overlay">
<circle cx="440.838" cy="727.215" r="4.02117" transform="rotate(-130.143 440.838 727.215)" fill="#FF541F"/>
</g>
<g style="mix-blend-mode:overlay">
<circle cx="112.131" cy="836.167" r="4.02117" transform="rotate(-130.143 112.131 836.167)" fill="#FF541F"/>
</g>
<g style="mix-blend-mode:overlay">
<circle cx="101.479" cy="424.562" r="4.02117" transform="rotate(-130.143 101.479 424.562)" fill="#FF541F"/>
</g>
<g style="mix-blend-mode:overlay">
<circle cx="422.474" cy="406.205" r="4.02117" transform="rotate(-130.143 422.474 406.205)" fill="#FF541F"/>
</g>
<g style="mix-blend-mode:overlay">
<circle cx="316.952" cy="574.079" r="8.03819" transform="rotate(-130.143 316.952 574.079)" fill="#FF541F"/>
</g>
<g style="mix-blend-mode:overlay">
<circle cx="282.788" cy="390.469" r="8.03819" transform="rotate(-130.143 282.788 390.469)" fill="#FF541F"/>
</g>
<g style="mix-blend-mode:overlay">
<circle cx="588.303" cy="602.831" r="4.02117" transform="rotate(-130.143 588.303 602.831)" fill="#FF541F"/>
</g>
<g style="mix-blend-mode:overlay">
<circle cx="439.365" cy="476.093" r="4.02117" transform="rotate(-130.143 439.365 476.093)" fill="#FF541F"/>
</g>
<circle cx="155.236" cy="592.829" r="4.02117" transform="rotate(-130.143 155.236 592.829)" fill="#FF541F"/>
<g style="mix-blend-mode:overlay">
<circle cx="235.018" cy="732.539" r="4.02117" transform="rotate(-130.143 235.018 732.539)" fill="#FF541F"/>
</g>
</svg>
