<svg width="112" height="128" viewBox="0 0 112 128" fill="none" xmlns="http://www.w3.org/2000/svg">
<path d="M23.4601 82.8893L88.7612 81.9787M23.4601 82.8893L55.2866 26.109M23.4601 82.8893L3.73084 94.7146M23.4601 82.8893L2.49996 33.9273M23.4601 82.8893L56.9495 124.798M88.7612 81.9787L55.2866 26.109M88.7612 81.9787L108.53 32.2116M88.7612 81.9787L108.996 93.5264M88.7612 81.9787L56.9495 124.798M55.2866 26.109L108.53 32.2116M55.2866 26.109L55.154 2.50002M55.2866 26.109L2.49996 33.9273M108.53 32.2116L108.996 93.5264M108.53 32.2116L55.154 2.50002M108.996 93.5264L56.9495 124.798M56.9495 124.798L3.73084 94.7146M3.73084 94.7146L2.49996 33.9273M2.49996 33.9273L55.154 2.50002" stroke="#F97316" stroke-width="5" stroke-linecap="round" stroke-linejoin="round"/>
</svg>
