<svg width="188" height="101" viewBox="0 0 188 101" fill="none" xmlns="http://www.w3.org/2000/svg">
<g filter="url(#filter0_dd_20_2901)">
<path d="M179.5 0.5L142.728 19.4436L162.296 22.1071L171.096 38.5992L179.5 0.5Z" fill="#006399"/>
<path d="M36.8333 31.7344H154.975V54.05C154.975 65.4106 142.255 76.5 126.565 76.5H36.8333C21.1852 76.5 8.5 65.4407 8.5 54.1172C8.5 40.4749 21.1852 31.7344 36.8333 31.7344Z" fill="#006399"/>
<path d="M179.5 0.5L142.728 19.4436L162.296 22.1071L171.096 38.5992L179.5 0.5Z" stroke="white" stroke-linejoin="round"/>
<path d="M36.8333 31.7344H154.975V54.05C154.975 65.4106 142.255 76.5 126.565 76.5H36.8333C21.1852 76.5 8.5 65.4407 8.5 54.1172C8.5 40.4749 21.1852 31.7344 36.8333 31.7344Z" stroke="white" stroke-linejoin="round"/>
</g>
<path d="M32.4395 59.5H30.8125V49.5059H36.459V50.8867H32.4395V54.0039H36.1992V55.3779H32.4395V59.5ZM40.2197 51.9326V59.5H38.6133V51.9326H40.2197ZM39.4268 49.0342C39.6729 49.0342 39.8848 49.1003 40.0625 49.2324C40.2448 49.3646 40.3359 49.5924 40.3359 49.916C40.3359 50.235 40.2448 50.4629 40.0625 50.5996C39.8848 50.7318 39.6729 50.7979 39.4268 50.7979C39.1715 50.7979 38.9551 50.7318 38.7773 50.5996C38.6042 50.4629 38.5176 50.235 38.5176 49.916C38.5176 49.5924 38.6042 49.3646 38.7773 49.2324C38.9551 49.1003 39.1715 49.0342 39.4268 49.0342ZM46.9678 51.7891C47.82 51.7891 48.4831 52.0101 48.957 52.4521C49.4355 52.8896 49.6748 53.5938 49.6748 54.5645V59.5H48.0684V54.8652C48.0684 54.2773 47.9476 53.8376 47.7061 53.5459C47.4645 53.2497 47.0908 53.1016 46.585 53.1016C45.8512 53.1016 45.3408 53.3271 45.0537 53.7783C44.7712 54.2295 44.6299 54.8835 44.6299 55.7402V59.5H43.0234V51.9326H44.2744L44.5 52.958H44.5889C44.7529 52.6937 44.9557 52.4772 45.1973 52.3086C45.4434 52.1354 45.7168 52.0055 46.0176 51.9189C46.3229 51.8324 46.6396 51.7891 46.9678 51.7891ZM54.9668 59.6367C54.0645 59.6367 53.3398 59.3086 52.793 58.6523C52.2507 57.9915 51.9795 57.0186 51.9795 55.7334C51.9795 54.4346 52.2552 53.4525 52.8066 52.7871C53.3626 52.1217 54.0941 51.7891 55.001 51.7891C55.3838 51.7891 55.7188 51.8415 56.0059 51.9463C56.293 52.0465 56.5391 52.1833 56.7441 52.3564C56.9538 52.5296 57.1315 52.7233 57.2773 52.9375H57.3525C57.3298 52.7962 57.3024 52.5934 57.2705 52.3291C57.2432 52.0602 57.2295 51.8118 57.2295 51.584V48.8633H58.8428V59.5H57.585L57.2979 58.4678H57.2295C57.0928 58.6865 56.9196 58.8848 56.71 59.0625C56.5049 59.2357 56.2588 59.3747 55.9717 59.4795C55.6891 59.5843 55.3542 59.6367 54.9668 59.6367ZM55.418 58.3311C56.1061 58.3311 56.5915 58.1328 56.874 57.7363C57.1566 57.3398 57.3024 56.7451 57.3115 55.9521V55.7402C57.3115 54.8926 57.1748 54.2432 56.9014 53.792C56.6279 53.3363 56.1289 53.1084 55.4043 53.1084C54.8255 53.1084 54.3835 53.3431 54.0781 53.8125C53.7773 54.2773 53.627 54.9268 53.627 55.7607C53.627 56.5947 53.7773 57.2327 54.0781 57.6748C54.3835 58.1123 54.8301 58.3311 55.418 58.3311ZM68.7773 54.0654L71.1494 49.5059H72.9199L69.5977 55.6172V59.5H67.9639V55.6787L64.6348 49.5059H66.4189L68.7773 54.0654ZM81.2676 55.6992C81.2676 56.3281 81.1855 56.8864 81.0215 57.374C80.8574 57.8617 80.6182 58.2741 80.3037 58.6113C79.9893 58.944 79.611 59.1992 79.1689 59.377C78.7269 59.5501 78.2279 59.6367 77.6719 59.6367C77.1523 59.6367 76.6761 59.5501 76.2432 59.377C75.8102 59.1992 75.4342 58.944 75.1152 58.6113C74.8008 58.2741 74.557 57.8617 74.3838 57.374C74.2106 56.8864 74.124 56.3281 74.124 55.6992C74.124 54.8652 74.2676 54.1589 74.5547 53.5801C74.8464 52.9967 75.2611 52.5524 75.7988 52.2471C76.3366 51.9417 76.9769 51.7891 77.7197 51.7891C78.417 51.7891 79.0322 51.9417 79.5654 52.2471C80.0986 52.5524 80.5156 52.9967 80.8164 53.5801C81.1172 54.1634 81.2676 54.8698 81.2676 55.6992ZM75.7783 55.6992C75.7783 56.2507 75.8444 56.7223 75.9766 57.1143C76.1133 57.5062 76.3229 57.807 76.6055 58.0166C76.888 58.2217 77.2526 58.3242 77.6992 58.3242C78.1458 58.3242 78.5104 58.2217 78.793 58.0166C79.0755 57.807 79.2829 57.5062 79.415 57.1143C79.5472 56.7223 79.6133 56.2507 79.6133 55.6992C79.6133 55.1478 79.5472 54.6807 79.415 54.2979C79.2829 53.9105 79.0755 53.6165 78.793 53.416C78.5104 53.2109 78.1436 53.1084 77.6924 53.1084C77.027 53.1084 76.5417 53.3317 76.2363 53.7783C75.931 54.2249 75.7783 54.8652 75.7783 55.6992ZM90.21 51.9326V59.5H88.9453L88.7266 58.4814H88.6377C88.4782 58.7412 88.2754 58.9577 88.0293 59.1309C87.7832 59.2995 87.5098 59.4248 87.209 59.5068C86.9082 59.5934 86.5915 59.6367 86.2588 59.6367C85.6891 59.6367 85.2015 59.541 84.7959 59.3496C84.3949 59.1536 84.0872 58.8529 83.873 58.4473C83.6589 58.0417 83.5518 57.5176 83.5518 56.875V51.9326H85.165V56.5742C85.165 57.1621 85.2835 57.6019 85.5205 57.8936C85.762 58.1852 86.1357 58.3311 86.6416 58.3311C87.1292 58.3311 87.5166 58.2308 87.8037 58.0303C88.0908 57.8298 88.2936 57.5335 88.4121 57.1416C88.5352 56.7497 88.5967 56.2689 88.5967 55.6992V51.9326H90.21ZM96.8486 51.7891C96.9762 51.7891 97.1152 51.7959 97.2656 51.8096C97.416 51.8232 97.5459 51.8415 97.6553 51.8643L97.5049 53.3682C97.4092 53.3408 97.2907 53.3203 97.1494 53.3066C97.0127 53.293 96.8896 53.2861 96.7803 53.2861C96.4932 53.2861 96.2197 53.334 95.96 53.4297C95.7002 53.5208 95.4701 53.6621 95.2695 53.8535C95.069 54.0404 94.9118 54.2751 94.7979 54.5576C94.6839 54.8402 94.627 55.1683 94.627 55.542V59.5H93.0137V51.9326H94.2715L94.4902 53.2656H94.5654C94.7158 52.9967 94.9027 52.7507 95.126 52.5273C95.3493 52.304 95.6045 52.1263 95.8916 51.9941C96.1833 51.8574 96.5023 51.7891 96.8486 51.7891ZM106.763 49.5059C108.052 49.5059 108.993 49.7702 109.586 50.2988C110.178 50.8275 110.475 51.568 110.475 52.5205C110.475 52.9535 110.406 53.3659 110.27 53.7578C110.137 54.1452 109.919 54.4893 109.613 54.79C109.308 55.0863 108.905 55.321 108.403 55.4941C107.907 55.6673 107.294 55.7539 106.564 55.7539H105.498V59.5H103.857V49.5059H106.763ZM106.653 50.8662H105.498V54.3867H106.394C106.909 54.3867 107.346 54.3275 107.706 54.209C108.066 54.0859 108.34 53.8923 108.526 53.6279C108.713 53.3636 108.807 53.015 108.807 52.582C108.807 52.0033 108.631 51.5726 108.28 51.29C107.934 51.0075 107.392 50.8662 106.653 50.8662ZM114.42 59.5H112.807V48.8633H114.42V59.5ZM120.184 51.7891C121.141 51.7891 121.863 52.001 122.351 52.4248C122.843 52.8486 123.089 53.5094 123.089 54.4072V59.5H121.947L121.64 58.4268H121.585C121.371 58.7002 121.15 58.9258 120.922 59.1035C120.694 59.2812 120.43 59.4134 120.129 59.5C119.833 59.5911 119.47 59.6367 119.042 59.6367C118.591 59.6367 118.188 59.5547 117.832 59.3906C117.477 59.222 117.196 58.9668 116.991 58.625C116.786 58.2832 116.684 57.8503 116.684 57.3262C116.684 56.5469 116.973 55.9613 117.552 55.5693C118.135 55.1774 119.015 54.9609 120.19 54.9199L121.503 54.8721V54.4756C121.503 53.9515 121.38 53.5778 121.134 53.3545C120.892 53.1312 120.55 53.0195 120.108 53.0195C119.73 53.0195 119.363 53.0742 119.008 53.1836C118.652 53.293 118.306 53.4274 117.969 53.5869L117.449 52.4521C117.818 52.2562 118.238 52.0967 118.707 51.9736C119.181 51.8506 119.673 51.7891 120.184 51.7891ZM121.496 55.8838L120.519 55.918C119.716 55.9453 119.154 56.082 118.83 56.3281C118.507 56.5742 118.345 56.9115 118.345 57.3398C118.345 57.7135 118.456 57.987 118.68 58.1602C118.903 58.3288 119.197 58.4131 119.562 58.4131C120.118 58.4131 120.578 58.2559 120.942 57.9414C121.312 57.6224 121.496 57.1553 121.496 56.54V55.8838ZM129.782 51.7891C130.634 51.7891 131.298 52.0101 131.771 52.4521C132.25 52.8896 132.489 53.5938 132.489 54.5645V59.5H130.883V54.8652C130.883 54.2773 130.762 53.8376 130.521 53.5459C130.279 53.2497 129.905 53.1016 129.399 53.1016C128.666 53.1016 128.155 53.3271 127.868 53.7783C127.586 54.2295 127.444 54.8835 127.444 55.7402V59.5H125.838V51.9326H127.089L127.314 52.958H127.403C127.567 52.6937 127.77 52.4772 128.012 52.3086C128.258 52.1354 128.531 52.0055 128.832 51.9189C129.137 51.8324 129.454 51.7891 129.782 51.7891Z" fill="white"/>
<defs>
<filter id="filter0_dd_20_2901" x="0" y="0" width="188" height="101" filterUnits="userSpaceOnUse" color-interpolation-filters="sRGB">
<feFlood flood-opacity="0" result="BackgroundImageFix"/>
<feColorMatrix in="SourceAlpha" type="matrix" values="0 0 0 0 0 0 0 0 0 0 0 0 0 0 0 0 0 0 127 0" result="hardAlpha"/>
<feMorphology radius="4" operator="erode" in="SourceAlpha" result="effect1_dropShadow_20_2901"/>
<feOffset dy="4"/>
<feGaussianBlur stdDeviation="2"/>
<feComposite in2="hardAlpha" operator="out"/>
<feColorMatrix type="matrix" values="0 0 0 0 0.0470588 0 0 0 0 0.0470588 0 0 0 0 0.0509804 0 0 0 0.05 0"/>
<feBlend mode="normal" in2="BackgroundImageFix" result="effect1_dropShadow_20_2901"/>
<feColorMatrix in="SourceAlpha" type="matrix" values="0 0 0 0 0 0 0 0 0 0 0 0 0 0 0 0 0 0 127 0" result="hardAlpha"/>
<feMorphology radius="8" operator="erode" in="SourceAlpha" result="effect2_dropShadow_20_2901"/>
<feOffset dy="16"/>
<feGaussianBlur stdDeviation="8"/>
<feComposite in2="hardAlpha" operator="out"/>
<feColorMatrix type="matrix" values="0 0 0 0 0.0470588 0 0 0 0 0.0470588 0 0 0 0 0.0509804 0 0 0 0.1 0"/>
<feBlend mode="normal" in2="effect1_dropShadow_20_2901" result="effect2_dropShadow_20_2901"/>
<feBlend mode="normal" in="SourceGraphic" in2="effect2_dropShadow_20_2901" result="shape"/>
</filter>
</defs>
</svg>
